{
	"patcher" : 	{
		"fileversion" : 1,
		"rect" : [ 617.0, 44.0, 829.0, 636.0 ],
		"bglocked" : 0,
		"defrect" : [ 617.0, 44.0, 829.0, 636.0 ],
		"openrect" : [ 0.0, 0.0, 0.0, 0.0 ],
		"openinpresentation" : 0,
		"default_fontsize" : 12.0,
		"default_fontface" : 0,
		"default_fontname" : "Arial",
		"gridonopen" : 0,
		"gridsize" : [ 15.0, 15.0 ],
		"gridsnaponopen" : 0,
		"toolbarvisible" : 1,
		"boxanimatetime" : 200,
		"imprint" : 0,
		"enablehscroll" : 1,
		"enablevscroll" : 1,
		"devicewidth" : 0.0,
		"boxes" : [ 			{
				"box" : 				{
					"maxclass" : "toggle",
					"outlettype" : [ "int" ],
					"presentation_rect" : [ 713.0, 285.0, 0.0, 0.0 ],
					"patching_rect" : [ 713.0, 285.0, 20.0, 20.0 ],
					"id" : "obj-41",
					"numinlets" : 1,
					"numoutlets" : 1
				}

			}
, 			{
				"box" : 				{
					"maxclass" : "newobj",
					"text" : "metro 1000",
					"fontsize" : 12.0,
					"outlettype" : [ "bang" ],
					"patching_rect" : [ 715.0, 338.0, 71.0, 20.0 ],
					"id" : "obj-42",
					"fontname" : "Arial",
					"numinlets" : 2,
					"numoutlets" : 1
				}

			}
, 			{
				"box" : 				{
					"maxclass" : "message",
					"text" : "1.",
					"fontsize" : 12.0,
					"outlettype" : [ "" ],
					"presentation_rect" : [ 688.0, 397.0, 0.0, 0.0 ],
					"patching_rect" : [ 688.0, 397.0, 32.5, 18.0 ],
					"id" : "obj-38",
					"fontname" : "Arial",
					"numinlets" : 2,
					"numoutlets" : 1
				}

			}
, 			{
				"box" : 				{
					"maxclass" : "newobj",
					"text" : "prepend /BulletCurtain/NewAnimationForSpawnedOthers",
					"fontsize" : 12.0,
					"outlettype" : [ "" ],
					"patching_rect" : [ 690.0, 429.0, 315.0, 20.0 ],
					"id" : "obj-39",
					"fontname" : "Arial",
					"numinlets" : 1,
					"numoutlets" : 1
				}

			}
, 			{
				"box" : 				{
					"maxclass" : "newobj",
					"text" : "udpsend localhost 8808",
					"fontsize" : 12.0,
					"presentation_rect" : [ 690.0, 454.0, 0.0, 0.0 ],
					"patching_rect" : [ 690.0, 454.0, 137.0, 20.0 ],
					"id" : "obj-40",
					"fontname" : "Arial",
					"numinlets" : 1,
					"numoutlets" : 0
				}

			}
, 			{
				"box" : 				{
					"maxclass" : "flonum",
					"fontsize" : 12.0,
					"outlettype" : [ "float", "bang" ],
					"presentation_rect" : [ 281.0, 390.0, 0.0, 0.0 ],
					"patching_rect" : [ 281.0, 390.0, 66.0, 20.0 ],
					"id" : "obj-32",
					"fontname" : "Arial",
					"numinlets" : 1,
					"numoutlets" : 2
				}

			}
, 			{
				"box" : 				{
					"maxclass" : "newobj",
					"text" : "p oscillator",
					"fontsize" : 12.0,
					"outlettype" : [ "float" ],
					"presentation_rect" : [ 281.0, 417.0, 0.0, 0.0 ],
					"patching_rect" : [ 281.0, 417.0, 68.0, 20.0 ],
					"id" : "obj-33",
					"fontname" : "Arial",
					"numinlets" : 1,
					"numoutlets" : 1,
					"patcher" : 					{
						"fileversion" : 1,
						"rect" : [ 291.0, 124.0, 640.0, 480.0 ],
						"bglocked" : 0,
						"defrect" : [ 291.0, 124.0, 640.0, 480.0 ],
						"openrect" : [ 0.0, 0.0, 0.0, 0.0 ],
						"openinpresentation" : 0,
						"default_fontsize" : 12.0,
						"default_fontface" : 0,
						"default_fontname" : "Arial",
						"gridonopen" : 0,
						"gridsize" : [ 15.0, 15.0 ],
						"gridsnaponopen" : 0,
						"toolbarvisible" : 1,
						"boxanimatetime" : 200,
						"imprint" : 0,
						"enablehscroll" : 1,
						"enablevscroll" : 1,
						"devicewidth" : 0.0,
						"boxes" : [ 							{
								"box" : 								{
									"maxclass" : "newobj",
									"text" : "snapshot~ 1",
									"fontsize" : 12.0,
									"outlettype" : [ "float" ],
									"patching_rect" : [ 36.0, 174.0, 76.0, 20.0 ],
									"id" : "obj-3",
									"fontname" : "Arial",
									"numinlets" : 2,
									"numoutlets" : 1
								}

							}
, 							{
								"box" : 								{
									"maxclass" : "outlet",
									"hint" : "Value",
									"patching_rect" : [ 36.0, 205.0, 25.0, 25.0 ],
									"id" : "obj-2",
									"numinlets" : 1,
									"numoutlets" : 0,
									"comment" : ""
								}

							}
, 							{
								"box" : 								{
									"maxclass" : "inlet",
									"hint" : "Frequency",
									"annotation" : "",
									"outlettype" : [ "float" ],
									"patching_rect" : [ 36.0, 41.0, 25.0, 25.0 ],
									"id" : "obj-1",
									"numinlets" : 0,
									"numoutlets" : 1,
									"comment" : ""
								}

							}
, 							{
								"box" : 								{
									"maxclass" : "newobj",
									"text" : "+~ 0.5",
									"fontsize" : 12.0,
									"outlettype" : [ "signal" ],
									"patching_rect" : [ 36.0, 139.0, 45.0, 20.0 ],
									"id" : "obj-137",
									"fontname" : "Arial",
									"numinlets" : 2,
									"numoutlets" : 1
								}

							}
, 							{
								"box" : 								{
									"maxclass" : "newobj",
									"text" : "*~ 0.5",
									"fontsize" : 12.0,
									"outlettype" : [ "signal" ],
									"patching_rect" : [ 36.0, 103.0, 42.0, 20.0 ],
									"id" : "obj-138",
									"fontname" : "Arial",
									"numinlets" : 2,
									"numoutlets" : 1
								}

							}
, 							{
								"box" : 								{
									"maxclass" : "newobj",
									"text" : "cycle~",
									"fontsize" : 12.0,
									"outlettype" : [ "signal" ],
									"patching_rect" : [ 36.0, 70.0, 45.0, 20.0 ],
									"id" : "obj-139",
									"fontname" : "Arial",
									"numinlets" : 2,
									"numoutlets" : 1
								}

							}
 ],
						"lines" : [ 							{
								"patchline" : 								{
									"source" : [ "obj-3", 0 ],
									"destination" : [ "obj-2", 0 ],
									"hidden" : 0,
									"midpoints" : [  ]
								}

							}
, 							{
								"patchline" : 								{
									"source" : [ "obj-137", 0 ],
									"destination" : [ "obj-3", 0 ],
									"hidden" : 0,
									"midpoints" : [  ]
								}

							}
, 							{
								"patchline" : 								{
									"source" : [ "obj-1", 0 ],
									"destination" : [ "obj-139", 0 ],
									"hidden" : 0,
									"midpoints" : [  ]
								}

							}
, 							{
								"patchline" : 								{
									"source" : [ "obj-139", 0 ],
									"destination" : [ "obj-138", 0 ],
									"hidden" : 0,
									"midpoints" : [  ]
								}

							}
, 							{
								"patchline" : 								{
									"source" : [ "obj-138", 0 ],
									"destination" : [ "obj-137", 0 ],
									"hidden" : 0,
									"midpoints" : [  ]
								}

							}
 ]
					}
,
					"saved_object_attributes" : 					{
						"fontface" : 0,
						"fontsize" : 12.0,
						"default_fontface" : 0,
						"fontname" : "Arial",
						"default_fontname" : "Arial",
						"globalpatchername" : "",
						"default_fontsize" : 12.0
					}

				}

			}
, 			{
				"box" : 				{
					"maxclass" : "slider",
					"outlettype" : [ "" ],
					"presentation_rect" : [ 281.0, 456.0, 0.0, 0.0 ],
					"patching_rect" : [ 281.0, 456.0, 126.0, 33.0 ],
					"floatoutput" : 1,
					"size" : 1.0,
					"id" : "obj-34",
					"numinlets" : 1,
					"numoutlets" : 1
				}

			}
, 			{
				"box" : 				{
					"maxclass" : "newobj",
					"text" : "prepend /BulletCurtain/SetOtherSpawnY",
					"fontsize" : 12.0,
					"outlettype" : [ "" ],
					"patching_rect" : [ 281.0, 493.0, 226.0, 20.0 ],
					"id" : "obj-35",
					"fontname" : "Arial",
					"numinlets" : 1,
					"numoutlets" : 1
				}

			}
, 			{
				"box" : 				{
					"maxclass" : "newobj",
					"text" : "udpsend localhost 8808",
					"fontsize" : 12.0,
					"presentation_rect" : [ 281.0, 518.0, 0.0, 0.0 ],
					"patching_rect" : [ 281.0, 518.0, 137.0, 20.0 ],
					"id" : "obj-36",
					"fontname" : "Arial",
					"numinlets" : 1,
					"numoutlets" : 0
				}

			}
, 			{
				"box" : 				{
					"maxclass" : "flonum",
					"fontsize" : 12.0,
					"outlettype" : [ "float", "bang" ],
					"presentation_rect" : [ 38.0, 388.0, 0.0, 0.0 ],
					"patching_rect" : [ 38.0, 388.0, 66.0, 20.0 ],
					"id" : "obj-27",
					"fontname" : "Arial",
					"numinlets" : 1,
					"numoutlets" : 2
				}

			}
, 			{
				"box" : 				{
					"maxclass" : "newobj",
					"text" : "p oscillator",
					"fontsize" : 12.0,
					"outlettype" : [ "float" ],
					"presentation_rect" : [ 38.0, 415.0, 0.0, 0.0 ],
					"patching_rect" : [ 38.0, 415.0, 68.0, 20.0 ],
					"id" : "obj-28",
					"fontname" : "Arial",
					"numinlets" : 1,
					"numoutlets" : 1,
					"patcher" : 					{
						"fileversion" : 1,
						"rect" : [ 291.0, 124.0, 640.0, 480.0 ],
						"bglocked" : 0,
						"defrect" : [ 291.0, 124.0, 640.0, 480.0 ],
						"openrect" : [ 0.0, 0.0, 0.0, 0.0 ],
						"openinpresentation" : 0,
						"default_fontsize" : 12.0,
						"default_fontface" : 0,
						"default_fontname" : "Arial",
						"gridonopen" : 0,
						"gridsize" : [ 15.0, 15.0 ],
						"gridsnaponopen" : 0,
						"toolbarvisible" : 1,
						"boxanimatetime" : 200,
						"imprint" : 0,
						"enablehscroll" : 1,
						"enablevscroll" : 1,
						"devicewidth" : 0.0,
						"boxes" : [ 							{
								"box" : 								{
									"maxclass" : "newobj",
									"text" : "snapshot~ 1",
									"fontsize" : 12.0,
									"outlettype" : [ "float" ],
									"patching_rect" : [ 36.0, 174.0, 76.0, 20.0 ],
									"id" : "obj-3",
									"fontname" : "Arial",
									"numinlets" : 2,
									"numoutlets" : 1
								}

							}
, 							{
								"box" : 								{
									"maxclass" : "outlet",
									"hint" : "Value",
									"patching_rect" : [ 36.0, 205.0, 25.0, 25.0 ],
									"id" : "obj-2",
									"numinlets" : 1,
									"numoutlets" : 0,
									"comment" : ""
								}

							}
, 							{
								"box" : 								{
									"maxclass" : "inlet",
									"hint" : "Frequency",
									"annotation" : "",
									"outlettype" : [ "float" ],
									"patching_rect" : [ 36.0, 41.0, 25.0, 25.0 ],
									"id" : "obj-1",
									"numinlets" : 0,
									"numoutlets" : 1,
									"comment" : ""
								}

							}
, 							{
								"box" : 								{
									"maxclass" : "newobj",
									"text" : "+~ 0.5",
									"fontsize" : 12.0,
									"outlettype" : [ "signal" ],
									"patching_rect" : [ 36.0, 139.0, 45.0, 20.0 ],
									"id" : "obj-137",
									"fontname" : "Arial",
									"numinlets" : 2,
									"numoutlets" : 1
								}

							}
, 							{
								"box" : 								{
									"maxclass" : "newobj",
									"text" : "*~ 0.5",
									"fontsize" : 12.0,
									"outlettype" : [ "signal" ],
									"patching_rect" : [ 36.0, 103.0, 42.0, 20.0 ],
									"id" : "obj-138",
									"fontname" : "Arial",
									"numinlets" : 2,
									"numoutlets" : 1
								}

							}
, 							{
								"box" : 								{
									"maxclass" : "newobj",
									"text" : "cycle~",
									"fontsize" : 12.0,
									"outlettype" : [ "signal" ],
									"patching_rect" : [ 36.0, 70.0, 45.0, 20.0 ],
									"id" : "obj-139",
									"fontname" : "Arial",
									"numinlets" : 2,
									"numoutlets" : 1
								}

							}
 ],
						"lines" : [ 							{
								"patchline" : 								{
									"source" : [ "obj-138", 0 ],
									"destination" : [ "obj-137", 0 ],
									"hidden" : 0,
									"midpoints" : [  ]
								}

							}
, 							{
								"patchline" : 								{
									"source" : [ "obj-139", 0 ],
									"destination" : [ "obj-138", 0 ],
									"hidden" : 0,
									"midpoints" : [  ]
								}

							}
, 							{
								"patchline" : 								{
									"source" : [ "obj-1", 0 ],
									"destination" : [ "obj-139", 0 ],
									"hidden" : 0,
									"midpoints" : [  ]
								}

							}
, 							{
								"patchline" : 								{
									"source" : [ "obj-137", 0 ],
									"destination" : [ "obj-3", 0 ],
									"hidden" : 0,
									"midpoints" : [  ]
								}

							}
, 							{
								"patchline" : 								{
									"source" : [ "obj-3", 0 ],
									"destination" : [ "obj-2", 0 ],
									"hidden" : 0,
									"midpoints" : [  ]
								}

							}
 ]
					}
,
					"saved_object_attributes" : 					{
						"fontface" : 0,
						"fontsize" : 12.0,
						"default_fontface" : 0,
						"fontname" : "Arial",
						"default_fontname" : "Arial",
						"globalpatchername" : "",
						"default_fontsize" : 12.0
					}

				}

			}
, 			{
				"box" : 				{
					"maxclass" : "slider",
					"outlettype" : [ "" ],
					"presentation_rect" : [ 38.0, 454.0, 0.0, 0.0 ],
					"patching_rect" : [ 38.0, 454.0, 126.0, 33.0 ],
					"floatoutput" : 1,
					"size" : 1.0,
					"id" : "obj-29",
					"numinlets" : 1,
					"numoutlets" : 1
				}

			}
, 			{
				"box" : 				{
					"maxclass" : "newobj",
					"text" : "prepend /BulletCurtain/SetOtherSpawnX",
					"fontsize" : 12.0,
					"outlettype" : [ "" ],
					"patching_rect" : [ 38.0, 491.0, 226.0, 20.0 ],
					"id" : "obj-30",
					"fontname" : "Arial",
					"numinlets" : 1,
					"numoutlets" : 1
				}

			}
, 			{
				"box" : 				{
					"maxclass" : "newobj",
					"text" : "udpsend localhost 8808",
					"fontsize" : 12.0,
					"presentation_rect" : [ 38.0, 516.0, 0.0, 0.0 ],
					"patching_rect" : [ 38.0, 516.0, 137.0, 20.0 ],
					"id" : "obj-31",
					"fontname" : "Arial",
					"numinlets" : 1,
					"numoutlets" : 0
				}

			}
, 			{
				"box" : 				{
					"maxclass" : "flonum",
					"fontsize" : 12.0,
					"outlettype" : [ "float", "bang" ],
					"patching_rect" : [ 745.0, 65.0, 50.0, 20.0 ],
					"id" : "obj-26",
					"fontname" : "Arial",
					"numinlets" : 1,
					"numoutlets" : 2
				}

			}
, 			{
				"box" : 				{
					"maxclass" : "toggle",
					"outlettype" : [ "int" ],
					"patching_rect" : [ 665.0, 52.0, 20.0, 20.0 ],
					"id" : "obj-24",
					"numinlets" : 1,
					"numoutlets" : 1
				}

			}
, 			{
				"box" : 				{
					"maxclass" : "newobj",
					"text" : "metro 100",
					"fontsize" : 12.0,
					"outlettype" : [ "bang" ],
					"patching_rect" : [ 667.0, 105.0, 65.0, 20.0 ],
					"id" : "obj-22",
					"fontname" : "Arial",
					"numinlets" : 2,
					"numoutlets" : 1
				}

			}
, 			{
				"box" : 				{
					"maxclass" : "message",
					"text" : "1.",
					"fontsize" : 12.0,
					"outlettype" : [ "" ],
					"patching_rect" : [ 766.0, 222.0, 32.5, 18.0 ],
					"id" : "obj-19",
					"fontname" : "Arial",
					"numinlets" : 2,
					"numoutlets" : 1
				}

			}
, 			{
				"box" : 				{
					"maxclass" : "flonum",
					"fontsize" : 12.0,
					"outlettype" : [ "float", "bang" ],
					"presentation_rect" : [ 767.0, 151.0, 0.0, 0.0 ],
					"patching_rect" : [ 767.0, 151.0, 66.0, 20.0 ],
					"id" : "obj-12",
					"fontname" : "Arial",
					"numinlets" : 1,
					"numoutlets" : 2
				}

			}
, 			{
				"box" : 				{
					"maxclass" : "newobj",
					"text" : "p oscillator",
					"fontsize" : 12.0,
					"outlettype" : [ "float" ],
					"presentation_rect" : [ 767.0, 178.0, 0.0, 0.0 ],
					"patching_rect" : [ 767.0, 178.0, 68.0, 20.0 ],
					"id" : "obj-13",
					"fontname" : "Arial",
					"numinlets" : 1,
					"numoutlets" : 1,
					"patcher" : 					{
						"fileversion" : 1,
						"rect" : [ 291.0, 124.0, 640.0, 480.0 ],
						"bglocked" : 0,
						"defrect" : [ 291.0, 124.0, 640.0, 480.0 ],
						"openrect" : [ 0.0, 0.0, 0.0, 0.0 ],
						"openinpresentation" : 0,
						"default_fontsize" : 12.0,
						"default_fontface" : 0,
						"default_fontname" : "Arial",
						"gridonopen" : 0,
						"gridsize" : [ 15.0, 15.0 ],
						"gridsnaponopen" : 0,
						"toolbarvisible" : 1,
						"boxanimatetime" : 200,
						"imprint" : 0,
						"enablehscroll" : 1,
						"enablevscroll" : 1,
						"devicewidth" : 0.0,
						"boxes" : [ 							{
								"box" : 								{
									"maxclass" : "newobj",
									"text" : "snapshot~ 1",
									"fontsize" : 12.0,
									"outlettype" : [ "float" ],
									"patching_rect" : [ 36.0, 174.0, 76.0, 20.0 ],
									"id" : "obj-3",
									"fontname" : "Arial",
									"numinlets" : 2,
									"numoutlets" : 1
								}

							}
, 							{
								"box" : 								{
									"maxclass" : "outlet",
									"hint" : "Value",
									"patching_rect" : [ 36.0, 205.0, 25.0, 25.0 ],
									"id" : "obj-2",
									"numinlets" : 1,
									"numoutlets" : 0,
									"comment" : ""
								}

							}
, 							{
								"box" : 								{
									"maxclass" : "inlet",
									"hint" : "Frequency",
									"annotation" : "",
									"outlettype" : [ "float" ],
									"patching_rect" : [ 36.0, 41.0, 25.0, 25.0 ],
									"id" : "obj-1",
									"numinlets" : 0,
									"numoutlets" : 1,
									"comment" : ""
								}

							}
, 							{
								"box" : 								{
									"maxclass" : "newobj",
									"text" : "+~ 0.5",
									"fontsize" : 12.0,
									"outlettype" : [ "signal" ],
									"patching_rect" : [ 36.0, 139.0, 45.0, 20.0 ],
									"id" : "obj-137",
									"fontname" : "Arial",
									"numinlets" : 2,
									"numoutlets" : 1
								}

							}
, 							{
								"box" : 								{
									"maxclass" : "newobj",
									"text" : "*~ 0.5",
									"fontsize" : 12.0,
									"outlettype" : [ "signal" ],
									"patching_rect" : [ 36.0, 103.0, 42.0, 20.0 ],
									"id" : "obj-138",
									"fontname" : "Arial",
									"numinlets" : 2,
									"numoutlets" : 1
								}

							}
, 							{
								"box" : 								{
									"maxclass" : "newobj",
									"text" : "cycle~",
									"fontsize" : 12.0,
									"outlettype" : [ "signal" ],
									"patching_rect" : [ 36.0, 70.0, 45.0, 20.0 ],
									"id" : "obj-139",
									"fontname" : "Arial",
									"numinlets" : 2,
									"numoutlets" : 1
								}

							}
 ],
						"lines" : [ 							{
								"patchline" : 								{
									"source" : [ "obj-138", 0 ],
									"destination" : [ "obj-137", 0 ],
									"hidden" : 0,
									"midpoints" : [  ]
								}

							}
, 							{
								"patchline" : 								{
									"source" : [ "obj-139", 0 ],
									"destination" : [ "obj-138", 0 ],
									"hidden" : 0,
									"midpoints" : [  ]
								}

							}
, 							{
								"patchline" : 								{
									"source" : [ "obj-1", 0 ],
									"destination" : [ "obj-139", 0 ],
									"hidden" : 0,
									"midpoints" : [  ]
								}

							}
, 							{
								"patchline" : 								{
									"source" : [ "obj-137", 0 ],
									"destination" : [ "obj-3", 0 ],
									"hidden" : 0,
									"midpoints" : [  ]
								}

							}
, 							{
								"patchline" : 								{
									"source" : [ "obj-3", 0 ],
									"destination" : [ "obj-2", 0 ],
									"hidden" : 0,
									"midpoints" : [  ]
								}

							}
 ]
					}
,
					"saved_object_attributes" : 					{
						"fontface" : 0,
						"fontsize" : 12.0,
						"default_fontface" : 0,
						"fontname" : "Arial",
						"default_fontname" : "Arial",
						"globalpatchername" : "",
						"default_fontsize" : 12.0
					}

				}

			}
, 			{
				"box" : 				{
					"maxclass" : "newobj",
					"text" : "prepend /BulletCurtain/GenerateAnOther",
					"fontsize" : 12.0,
					"outlettype" : [ "" ],
					"patching_rect" : [ 768.0, 254.0, 228.0, 20.0 ],
					"id" : "obj-15",
					"fontname" : "Arial",
					"numinlets" : 1,
					"numoutlets" : 1
				}

			}
, 			{
				"box" : 				{
					"maxclass" : "newobj",
					"text" : "udpsend localhost 8808",
					"fontsize" : 12.0,
					"presentation_rect" : [ 768.0, 279.0, 0.0, 0.0 ],
					"patching_rect" : [ 768.0, 279.0, 137.0, 20.0 ],
					"id" : "obj-16",
					"fontname" : "Arial",
					"numinlets" : 1,
					"numoutlets" : 0
				}

			}
, 			{
				"box" : 				{
					"maxclass" : "flonum",
					"fontsize" : 12.0,
					"outlettype" : [ "float", "bang" ],
					"presentation_rect" : [ 225.0, 76.0, 0.0, 0.0 ],
					"patching_rect" : [ 225.0, 76.0, 66.0, 20.0 ],
					"id" : "obj-10",
					"fontname" : "Arial",
					"numinlets" : 1,
					"numoutlets" : 2
				}

			}
, 			{
				"box" : 				{
					"maxclass" : "newobj",
					"text" : "p oscillator",
					"fontsize" : 12.0,
					"outlettype" : [ "float" ],
					"presentation_rect" : [ 225.0, 103.0, 0.0, 0.0 ],
					"patching_rect" : [ 225.0, 103.0, 68.0, 20.0 ],
					"id" : "obj-11",
					"fontname" : "Arial",
					"numinlets" : 1,
					"numoutlets" : 1,
					"patcher" : 					{
						"fileversion" : 1,
						"rect" : [ 291.0, 124.0, 640.0, 480.0 ],
						"bglocked" : 0,
						"defrect" : [ 291.0, 124.0, 640.0, 480.0 ],
						"openrect" : [ 0.0, 0.0, 0.0, 0.0 ],
						"openinpresentation" : 0,
						"default_fontsize" : 12.0,
						"default_fontface" : 0,
						"default_fontname" : "Arial",
						"gridonopen" : 0,
						"gridsize" : [ 15.0, 15.0 ],
						"gridsnaponopen" : 0,
						"toolbarvisible" : 1,
						"boxanimatetime" : 200,
						"imprint" : 0,
						"enablehscroll" : 1,
						"enablevscroll" : 1,
						"devicewidth" : 0.0,
						"boxes" : [ 							{
								"box" : 								{
									"maxclass" : "newobj",
									"text" : "snapshot~ 1",
									"fontsize" : 12.0,
									"outlettype" : [ "float" ],
									"patching_rect" : [ 36.0, 174.0, 76.0, 20.0 ],
									"id" : "obj-3",
									"fontname" : "Arial",
									"numinlets" : 2,
									"numoutlets" : 1
								}

							}
, 							{
								"box" : 								{
									"maxclass" : "outlet",
									"hint" : "Value",
									"patching_rect" : [ 36.0, 205.0, 25.0, 25.0 ],
									"id" : "obj-2",
									"numinlets" : 1,
									"numoutlets" : 0,
									"comment" : ""
								}

							}
, 							{
								"box" : 								{
									"maxclass" : "inlet",
									"hint" : "Frequency",
									"annotation" : "",
									"outlettype" : [ "float" ],
									"patching_rect" : [ 36.0, 41.0, 25.0, 25.0 ],
									"id" : "obj-1",
									"numinlets" : 0,
									"numoutlets" : 1,
									"comment" : ""
								}

							}
, 							{
								"box" : 								{
									"maxclass" : "newobj",
									"text" : "+~ 0.5",
									"fontsize" : 12.0,
									"outlettype" : [ "signal" ],
									"patching_rect" : [ 36.0, 139.0, 45.0, 20.0 ],
									"id" : "obj-137",
									"fontname" : "Arial",
									"numinlets" : 2,
									"numoutlets" : 1
								}

							}
, 							{
								"box" : 								{
									"maxclass" : "newobj",
									"text" : "*~ 0.5",
									"fontsize" : 12.0,
									"outlettype" : [ "signal" ],
									"patching_rect" : [ 36.0, 103.0, 42.0, 20.0 ],
									"id" : "obj-138",
									"fontname" : "Arial",
									"numinlets" : 2,
									"numoutlets" : 1
								}

							}
, 							{
								"box" : 								{
									"maxclass" : "newobj",
									"text" : "cycle~",
									"fontsize" : 12.0,
									"outlettype" : [ "signal" ],
									"patching_rect" : [ 36.0, 70.0, 45.0, 20.0 ],
									"id" : "obj-139",
									"fontname" : "Arial",
									"numinlets" : 2,
									"numoutlets" : 1
								}

							}
 ],
						"lines" : [ 							{
								"patchline" : 								{
									"source" : [ "obj-138", 0 ],
									"destination" : [ "obj-137", 0 ],
									"hidden" : 0,
									"midpoints" : [  ]
								}

							}
, 							{
								"patchline" : 								{
									"source" : [ "obj-139", 0 ],
									"destination" : [ "obj-138", 0 ],
									"hidden" : 0,
									"midpoints" : [  ]
								}

							}
, 							{
								"patchline" : 								{
									"source" : [ "obj-1", 0 ],
									"destination" : [ "obj-139", 0 ],
									"hidden" : 0,
									"midpoints" : [  ]
								}

							}
, 							{
								"patchline" : 								{
									"source" : [ "obj-137", 0 ],
									"destination" : [ "obj-3", 0 ],
									"hidden" : 0,
									"midpoints" : [  ]
								}

							}
, 							{
								"patchline" : 								{
									"source" : [ "obj-3", 0 ],
									"destination" : [ "obj-2", 0 ],
									"hidden" : 0,
									"midpoints" : [  ]
								}

							}
 ]
					}
,
					"saved_object_attributes" : 					{
						"fontface" : 0,
						"fontsize" : 12.0,
						"default_fontface" : 0,
						"fontname" : "Arial",
						"default_fontname" : "Arial",
						"globalpatchername" : "",
						"default_fontsize" : 12.0
					}

				}

			}
, 			{
				"box" : 				{
					"maxclass" : "flonum",
					"fontsize" : 12.0,
					"outlettype" : [ "float", "bang" ],
					"patching_rect" : [ 508.0, 174.0, 66.0, 20.0 ],
					"id" : "obj-56",
					"fontname" : "Arial",
					"numinlets" : 1,
					"numoutlets" : 2
				}

			}
, 			{
				"box" : 				{
					"maxclass" : "newobj",
					"text" : "p oscillator",
					"fontsize" : 12.0,
					"outlettype" : [ "float" ],
					"patching_rect" : [ 508.0, 201.0, 68.0, 20.0 ],
					"id" : "obj-57",
					"fontname" : "Arial",
					"numinlets" : 1,
					"numoutlets" : 1,
					"patcher" : 					{
						"fileversion" : 1,
						"rect" : [ 291.0, 124.0, 640.0, 480.0 ],
						"bglocked" : 0,
						"defrect" : [ 291.0, 124.0, 640.0, 480.0 ],
						"openrect" : [ 0.0, 0.0, 0.0, 0.0 ],
						"openinpresentation" : 0,
						"default_fontsize" : 12.0,
						"default_fontface" : 0,
						"default_fontname" : "Arial",
						"gridonopen" : 0,
						"gridsize" : [ 15.0, 15.0 ],
						"gridsnaponopen" : 0,
						"toolbarvisible" : 1,
						"boxanimatetime" : 200,
						"imprint" : 0,
						"enablehscroll" : 1,
						"enablevscroll" : 1,
						"devicewidth" : 0.0,
						"boxes" : [ 							{
								"box" : 								{
									"maxclass" : "newobj",
									"text" : "snapshot~ 1",
									"fontsize" : 12.0,
									"outlettype" : [ "float" ],
									"patching_rect" : [ 36.0, 174.0, 76.0, 20.0 ],
									"id" : "obj-3",
									"fontname" : "Arial",
									"numinlets" : 2,
									"numoutlets" : 1
								}

							}
, 							{
								"box" : 								{
									"maxclass" : "outlet",
									"hint" : "Value",
									"patching_rect" : [ 36.0, 205.0, 25.0, 25.0 ],
									"id" : "obj-2",
									"numinlets" : 1,
									"numoutlets" : 0,
									"comment" : ""
								}

							}
, 							{
								"box" : 								{
									"maxclass" : "inlet",
									"hint" : "Frequency",
									"annotation" : "",
									"outlettype" : [ "float" ],
									"patching_rect" : [ 36.0, 41.0, 25.0, 25.0 ],
									"id" : "obj-1",
									"numinlets" : 0,
									"numoutlets" : 1,
									"comment" : ""
								}

							}
, 							{
								"box" : 								{
									"maxclass" : "newobj",
									"text" : "+~ 0.5",
									"fontsize" : 12.0,
									"outlettype" : [ "signal" ],
									"patching_rect" : [ 36.0, 139.0, 45.0, 20.0 ],
									"id" : "obj-137",
									"fontname" : "Arial",
									"numinlets" : 2,
									"numoutlets" : 1
								}

							}
, 							{
								"box" : 								{
									"maxclass" : "newobj",
									"text" : "*~ 0.5",
									"fontsize" : 12.0,
									"outlettype" : [ "signal" ],
									"patching_rect" : [ 36.0, 103.0, 42.0, 20.0 ],
									"id" : "obj-138",
									"fontname" : "Arial",
									"numinlets" : 2,
									"numoutlets" : 1
								}

							}
, 							{
								"box" : 								{
									"maxclass" : "newobj",
									"text" : "cycle~",
									"fontsize" : 12.0,
									"outlettype" : [ "signal" ],
									"patching_rect" : [ 36.0, 70.0, 45.0, 20.0 ],
									"id" : "obj-139",
									"fontname" : "Arial",
									"numinlets" : 2,
									"numoutlets" : 1
								}

							}
 ],
						"lines" : [ 							{
								"patchline" : 								{
									"source" : [ "obj-3", 0 ],
									"destination" : [ "obj-2", 0 ],
									"hidden" : 0,
									"midpoints" : [  ]
								}

							}
, 							{
								"patchline" : 								{
									"source" : [ "obj-137", 0 ],
									"destination" : [ "obj-3", 0 ],
									"hidden" : 0,
									"midpoints" : [  ]
								}

							}
, 							{
								"patchline" : 								{
									"source" : [ "obj-1", 0 ],
									"destination" : [ "obj-139", 0 ],
									"hidden" : 0,
									"midpoints" : [  ]
								}

							}
, 							{
								"patchline" : 								{
									"source" : [ "obj-139", 0 ],
									"destination" : [ "obj-138", 0 ],
									"hidden" : 0,
									"midpoints" : [  ]
								}

							}
, 							{
								"patchline" : 								{
									"source" : [ "obj-138", 0 ],
									"destination" : [ "obj-137", 0 ],
									"hidden" : 0,
									"midpoints" : [  ]
								}

							}
 ]
					}
,
					"saved_object_attributes" : 					{
						"fontface" : 0,
						"fontsize" : 12.0,
						"default_fontface" : 0,
						"fontname" : "Arial",
						"default_fontname" : "Arial",
						"globalpatchername" : "",
						"default_fontsize" : 12.0
					}

				}

			}
, 			{
				"box" : 				{
					"maxclass" : "slider",
					"outlettype" : [ "" ],
					"presentation_rect" : [ 500.0, 193.0, 0.0, 0.0 ],
					"patching_rect" : [ 508.0, 240.0, 126.0, 33.0 ],
					"floatoutput" : 1,
					"size" : 1.0,
					"id" : "obj-4",
					"numinlets" : 1,
					"numoutlets" : 1
				}

			}
, 			{
				"box" : 				{
					"maxclass" : "newobj",
					"text" : "prepend /BulletCurtain/SetSubjectY",
					"fontsize" : 12.0,
					"outlettype" : [ "" ],
					"patching_rect" : [ 508.0, 277.0, 199.0, 20.0 ],
					"id" : "obj-5",
					"fontname" : "Arial",
					"numinlets" : 1,
					"numoutlets" : 1
				}

			}
, 			{
				"box" : 				{
					"maxclass" : "newobj",
					"text" : "udpsend localhost 8808",
					"fontsize" : 12.0,
					"presentation_rect" : [ 509.0, 302.0, 0.0, 0.0 ],
					"patching_rect" : [ 508.0, 302.0, 137.0, 20.0 ],
					"id" : "obj-6",
					"fontname" : "Arial",
					"numinlets" : 1,
					"numoutlets" : 0
				}

			}
, 			{
				"box" : 				{
					"maxclass" : "flonum",
					"fontsize" : 12.0,
					"outlettype" : [ "float", "bang" ],
					"patching_rect" : [ 435.0, 167.0, 50.0, 20.0 ],
					"id" : "obj-7",
					"fontname" : "Arial",
					"numinlets" : 1,
					"numoutlets" : 2
				}

			}
, 			{
				"box" : 				{
					"maxclass" : "slider",
					"outlettype" : [ "" ],
					"patching_rect" : [ 234.0, 159.0, 126.0, 33.0 ],
					"floatoutput" : 1,
					"size" : 1.0,
					"id" : "obj-82",
					"numinlets" : 1,
					"numoutlets" : 1
				}

			}
, 			{
				"box" : 				{
					"maxclass" : "newobj",
					"text" : "prepend /BulletCurtain/SetSubjectX",
					"fontsize" : 12.0,
					"outlettype" : [ "" ],
					"patching_rect" : [ 244.0, 220.0, 199.0, 20.0 ],
					"id" : "obj-3",
					"fontname" : "Arial",
					"numinlets" : 1,
					"numoutlets" : 1
				}

			}
, 			{
				"box" : 				{
					"maxclass" : "newobj",
					"text" : "udpreceive 8809",
					"fontsize" : 12.0,
					"outlettype" : [ "" ],
					"patching_rect" : [ 78.0, 137.0, 99.0, 20.0 ],
					"id" : "obj-2",
					"fontname" : "Arial",
					"numinlets" : 1,
					"numoutlets" : 1
				}

			}
, 			{
				"box" : 				{
					"maxclass" : "newobj",
					"text" : "udpsend localhost 8808",
					"fontsize" : 12.0,
					"patching_rect" : [ 243.0, 268.0, 137.0, 20.0 ],
					"id" : "obj-1",
					"fontname" : "Arial",
					"numinlets" : 1,
					"numoutlets" : 0
				}

			}
 ],
		"lines" : [ 			{
				"patchline" : 				{
					"source" : [ "obj-41", 0 ],
					"destination" : [ "obj-42", 0 ],
					"hidden" : 0,
					"midpoints" : [  ]
				}

			}
, 			{
				"patchline" : 				{
					"source" : [ "obj-42", 0 ],
					"destination" : [ "obj-38", 0 ],
					"hidden" : 0,
					"midpoints" : [  ]
				}

			}
, 			{
				"patchline" : 				{
					"source" : [ "obj-38", 0 ],
					"destination" : [ "obj-39", 0 ],
					"hidden" : 0,
					"midpoints" : [  ]
				}

			}
, 			{
				"patchline" : 				{
					"source" : [ "obj-39", 0 ],
					"destination" : [ "obj-40", 0 ],
					"hidden" : 0,
					"midpoints" : [  ]
				}

			}
, 			{
				"patchline" : 				{
					"source" : [ "obj-33", 0 ],
					"destination" : [ "obj-34", 0 ],
					"hidden" : 0,
					"midpoints" : [  ]
				}

			}
, 			{
				"patchline" : 				{
					"source" : [ "obj-34", 0 ],
					"destination" : [ "obj-35", 0 ],
					"hidden" : 0,
					"midpoints" : [  ]
				}

			}
, 			{
				"patchline" : 				{
					"source" : [ "obj-35", 0 ],
					"destination" : [ "obj-36", 0 ],
					"hidden" : 0,
					"midpoints" : [  ]
				}

			}
, 			{
				"patchline" : 				{
					"source" : [ "obj-32", 0 ],
					"destination" : [ "obj-33", 0 ],
					"hidden" : 0,
					"midpoints" : [  ]
				}

			}
, 			{
				"patchline" : 				{
					"source" : [ "obj-29", 0 ],
					"destination" : [ "obj-30", 0 ],
					"hidden" : 0,
					"midpoints" : [  ]
				}

			}
, 			{
				"patchline" : 				{
					"source" : [ "obj-30", 0 ],
					"destination" : [ "obj-31", 0 ],
					"hidden" : 0,
					"midpoints" : [  ]
				}

			}
, 			{
				"patchline" : 				{
					"source" : [ "obj-27", 0 ],
					"destination" : [ "obj-28", 0 ],
					"hidden" : 0,
					"midpoints" : [  ]
				}

			}
, 			{
				"patchline" : 				{
					"source" : [ "obj-7", 0 ],
					"destination" : [ "obj-3", 0 ],
					"hidden" : 0,
					"midpoints" : [  ]
				}

			}
, 			{
				"patchline" : 				{
					"source" : [ "obj-26", 0 ],
					"destination" : [ "obj-22", 1 ],
					"hidden" : 0,
					"midpoints" : [  ]
				}

			}
, 			{
				"patchline" : 				{
					"source" : [ "obj-24", 0 ],
					"destination" : [ "obj-22", 0 ],
					"hidden" : 0,
					"midpoints" : [  ]
				}

			}
, 			{
				"patchline" : 				{
					"source" : [ "obj-22", 0 ],
					"destination" : [ "obj-19", 0 ],
					"hidden" : 0,
					"midpoints" : [  ]
				}

			}
, 			{
				"patchline" : 				{
					"source" : [ "obj-19", 0 ],
					"destination" : [ "obj-15", 0 ],
					"hidden" : 0,
					"midpoints" : [  ]
				}

			}
, 			{
				"patchline" : 				{
					"source" : [ "obj-15", 0 ],
					"destination" : [ "obj-16", 0 ],
					"hidden" : 0,
					"midpoints" : [  ]
				}

			}
, 			{
				"patchline" : 				{
					"source" : [ "obj-12", 0 ],
					"destination" : [ "obj-13", 0 ],
					"hidden" : 0,
					"midpoints" : [  ]
				}

			}
, 			{
				"patchline" : 				{
					"source" : [ "obj-11", 0 ],
					"destination" : [ "obj-82", 0 ],
					"hidden" : 0,
					"midpoints" : [  ]
				}

			}
, 			{
				"patchline" : 				{
					"source" : [ "obj-10", 0 ],
					"destination" : [ "obj-11", 0 ],
					"hidden" : 0,
					"midpoints" : [  ]
				}

			}
, 			{
				"patchline" : 				{
					"source" : [ "obj-57", 0 ],
					"destination" : [ "obj-4", 0 ],
					"hidden" : 0,
					"midpoints" : [  ]
				}

			}
, 			{
				"patchline" : 				{
					"source" : [ "obj-56", 0 ],
					"destination" : [ "obj-57", 0 ],
					"hidden" : 0,
					"midpoints" : [  ]
				}

			}
, 			{
				"patchline" : 				{
					"source" : [ "obj-4", 0 ],
					"destination" : [ "obj-5", 0 ],
					"hidden" : 0,
					"midpoints" : [  ]
				}

			}
, 			{
				"patchline" : 				{
					"source" : [ "obj-5", 0 ],
					"destination" : [ "obj-6", 0 ],
					"hidden" : 0,
					"midpoints" : [  ]
				}

			}
, 			{
				"patchline" : 				{
					"source" : [ "obj-82", 0 ],
					"destination" : [ "obj-7", 0 ],
					"hidden" : 0,
					"midpoints" : [  ]
				}

			}
, 			{
				"patchline" : 				{
					"source" : [ "obj-3", 0 ],
					"destination" : [ "obj-1", 0 ],
					"hidden" : 0,
					"midpoints" : [  ]
				}

			}
 ]
	}

}
