#N canvas 105 271 450 296 10;
#X obj 117 217 sendOSC;
#X obj 44 1 bng 15 250 50 0 empty empty empty 17 7 0 10 -262144 -1
-1;
#X msg 45 26 connect localhost 8080;
#X obj 200 154 hsl 128 15 0.01 0.99 0 0 empty empty elasticity -2 -8
0 10 -262144 -1 -1 12700 1;
#X msg 197 184 send /BouncingBalls/SetElasticity \$1;
#X obj 151 68 hsl 128 15 0.001 0.99 0 0 empty empty mass -2 -8 0 10
-262144 -1 -1 3300 1;
#X floatatom 224 222 5 0 0 0 - - -;
#X floatatom 161 119 5 0 0 0 - - -;
#X msg 148 93 send /BouncingBalls/SetMass \$1;
#X connect 1 0 2 0;
#X connect 2 0 0 0;
#X connect 3 0 4 0;
#X connect 4 0 0 0;
#X connect 4 0 6 0;
#X connect 5 0 8 0;
#X connect 8 0 0 0;
#X connect 8 0 7 0;
